#!OML:ASF H:\Terrain\Patient Classification 1\Walking\liu\liu.ASF
:FULLY-SPECIFIED
:DEGREES
340
root 9.401290 16.632700 12.018100 5.709500 11.068600 -0.950236
lowerback -63.681999 -45.873100 -22.387100
upperback -14.477800 -60.475002 32.365700
thorax 26.437399 -30.457399 40.556301
lowerneck -202.977997 -52.514099 -128.248001
upperneck 214.244995 -68.453697 137.005997
head 112.638000 -25.620300 61.438198
rclavicle -0.000000 -0.000000
rhumerus -462.239014 46.761799 -812.026001
rradius 303.522003
rwrist -152.156006
rhand -268.609009 -293.445007
rfingers 71.250198
rthumb -2.857370 -593.239990
lclavicle -0.000000 -0.000000
lhumerus -287.705017 -227.033005 1013.720032
lradius 259.743011
lwrist 40.182098
lhand -113.895996 -241.329987
lfingers 71.250198
lthumb 146.451996 53.298500
rfemur -346.156982 9.519890 234.505005
rtibia 410.484985
rfoot -116.345993 20.130402
rtoes -129.864990
lfemur 96.349701 62.819298 -116.540001
ltibia 385.484009
lfoot 117.840996 6.374180
ltoes -138.751007
341
root 9.362700 16.662201 12.162900 5.715260 10.753400 -1.442570
lowerback -61.387802 -43.656403 -21.221699
upperback -15.800600 -57.641602 34.312202
thorax 23.623400 -28.992500 42.450600
lowerneck -198.186005 -53.816902 -131.569992
upperneck 210.170990 -70.445999 140.912994
head 110.834000 -26.536200 63.029900
rclavicle -0.000000 -0.000000
rhumerus -461.609009 48.446396 -812.571045
rradius 308.778015
rwrist -161.251999
rhand -278.649994 -278.139008
rfingers 71.250198
rthumb -12.554999 -577.899048
lclavicle -0.000000 -0.000000
lhumerus -290.205994 -215.471008 1011.200012
lradius 249.360992
lwrist 34.123600
lhand -109.884995 -234.102997
lfingers 71.250198
lthumb 150.315994 60.240700
rfemur -339.087982 21.914799 240.500000
rtibia 406.893982
rfoot -123.156006 13.836699
rtoes -125.542999
lfemur 77.937798 66.249901 -110.442001
ltibia 414.234985
lfoot 123.433998 14.317301
ltoes -133.198990
342
root 9.345100 16.700300 12.306600 5.901440 10.458600 -1.412250
lowerback -62.119499 -41.443298 -22.388201
upperback -15.280600 -54.611000 33.854099
thorax 24.350601 -27.501699 42.846397
lowerneck -198.574997 -55.119598 -133.266006
upperneck 207.104004 -72.096100 143.610001
head 110.252998 -27.113701 63.968601
rclavicle 0.000000 -0.000000
rhumerus -457.401001 48.215599 -812.963989
rradius 313.002991
rwrist -167.115005
rhand -287.975006 -244.328995
rfingers 71.250198
rthumb -21.561699 -544.016968
lclavicle 0.000000 -0.000000
lhumerus -290.223022 -207.951996 1007.310059
lradius 241.079010
lwrist 30.296499
lhand -104.281998 -224.533005
lfingers 71.250198
lthumb 155.712997 69.398796
rfemur -334.231995 25.918100 241.963989
rtibia 403.605988
rfoot -125.950005 13.195000
rtoes -124.947998
lfemur 60.187996 69.717796 -111.688995
ltibia 440.541992
lfoot 122.550003 26.611401
ltoes -118.213997
343
root 9.338850 16.742001 12.449600 6.052830 10.659800 -1.132990
lowerback -63.386696 -41.109100 -24.095400
upperback -14.072800 -54.022499 32.316898
thorax 26.257301 -27.256500 42.121502
lowerneck -202.078003 -56.231197 -133.561005
upperneck 207.735001 -73.208801 143.584000
head 111.363998 -27.513399 63.852600
rclavicle 0.000000 0.000000
rhumerus -452.324982 48.797798 -813.776978
rradius 316.783997
rwrist -172.992996
rhand -285.562988 -224.468994
rfingers 71.250198
rthumb -19.232000 -524.179993
lclavicle 0.000000 0.000000
lhumerus -290.354004 -204.536987 1003.960022
lradius 232.989990
lwrist 30.833500
lhand -103.639999 -218.897995
lfingers 71.250198
lthumb 156.330994 74.985397
rfemur -327.326019 21.698700 240.890015
rtibia 398.480988
rfoot -128.507996 15.644799
rtoes -127.681000
lfemur 41.930599 68.274597 -116.487999
ltibia 466.940979
lfoot 109.473000 44.229004
ltoes -123.893005
344
root 9.341660 16.782301 12.597200 6.068950 10.724300 -0.987463
lowerback -62.809601 -40.361298 -22.945299
upperback -15.138700 -53.030800 30.505400
thorax 24.461601 -26.697199 39.784702
lowerneck -201.264008 -56.250500 -130.319992
upperneck 210.548004 -73.333900 138.490005
head 111.883003 -27.900299 61.391201
rclavicle 0.000000 0.000000
rhumerus -452.779999 48.960300 -814.793030
rradius 321.852997
rwrist -178.160004
rhand -273.067993 -248.752991
rfingers 71.250198
rthumb -7.164400 -548.539001
lclavicle 0.000000 0.000000
lhumerus -296.368011 -198.665009 1001.200012
lradius 226.798996
lwrist 27.173801
lhand -101.605995 -213.414993
lfingers 71.250198
lthumb 158.289001 80.313599
rfemur -317.579010 17.380901 241.070007
rtibia 392.596008
rfoot -131.735001 19.907200
rtoes -125.181999
lfemur 25.800800 67.688797 -120.395004
ltibia 491.846985
lfoot 93.027405 61.800999
ltoes -126.127007
345
root 9.323430 16.816601 12.704300 6.335840 10.655300 -1.488420
lowerback -59.914398 -39.174000 -17.869299
upperback -19.514900 -51.717499 31.450600
thorax 17.856199 -25.871799 38.438103
lowerneck -193.941010 -55.308399 -128.940002
upperneck 209.230011 -72.636597 136.449005
head 109.708008 -27.966299 60.425499
rclavicle 0.000000 0.000000
rhumerus -456.170990 53.725201 -818.768982
rradius 328.829010
rwrist -184.015991
rhand -262.096985 -313.187988
rfingers 71.250198
rthumb 3.432220 -612.983032
lclavicle 0.000000 0.000000
lhumerus -305.235016 -187.759003 997.575012
lradius 224.118988
lwrist 19.153400
lhand -98.089798 -204.386993
lfingers 71.250198
lthumb 161.676010 89.069901
rfemur -314.596008 21.571901 247.996994
rtibia 387.080017
rfoot -129.772003 15.856700
rtoes -114.431999
lfemur 3.071020 69.347397 -116.761002
ltibia 514.187012
lfoot 82.681900 76.256500
ltoes -96.540207
346
root 9.297860 16.841000 12.809800 6.539170 10.484200 -1.974710
lowerback -57.552399 -37.643700 -15.845300
upperback -21.274900 -49.811203 33.902000
thorax 14.618900 -24.859400 40.240501
lowerneck -191.627991 -55.244999 -133.166000
upperneck 207.000000 -72.549400 141.330994
head 108.830994 -27.817499 62.985302
rclavicle 0.000000 0.000000
rhumerus -455.868988 66.567398 -825.647949
rradius 338.389008
rwrist -194.367004
rhand -272.796997 -331.409973
rfingers 71.250198
rthumb -6.902240 -631.195984
lclavicle 0.000000 0.000000
lhumerus -309.317993 -179.233002 995.115967
lradius 222.393005
lwrist 14.425301
lhand -95.196106 -195.442017
lfingers 71.250198
lthumb 164.461990 97.787201
rfemur -311.480011 28.787701 254.600998
rtibia 380.691986
rfoot -127.028999 9.478680
rtoes -108.226997
lfemur -19.329500 72.469704 -112.531006
ltibia 535.739990
lfoot 71.659599 87.727402
ltoes -67.446098
347
root 9.311750 16.878401 12.996700 6.209550 10.297500 -0.939873
lowerback -58.239799 -36.605301 -25.772301
upperback -17.001600 -47.893501 30.923801
thorax 19.797300 -24.055500 42.660999
lowerneck -196.658997 -56.992001 -135.551010
upperneck 207.759003 -74.291801 143.421997
head 110.578003 -28.384600 63.960300
rclavicle -0.000000 -0.000000
rhumerus -450.317017 76.003197 -829.218994
rradius 347.225983
rwrist -203.473999
rhand -291.112000 -297.898010
rfingers 71.250198
rthumb -24.591000 -597.554016
lclavicle -0.000000 -0.000000
lhumerus -310.804016 -177.198013 993.475037
lradius 221.931992
lwrist 12.877001
lhand -89.263901 -188.483002
lfingers 71.250198
lthumb 170.173004 104.263000
rfemur -295.177979 23.622000 245.063004
rtibia 374.747986
rfoot -130.874008 15.638800
rtoes -104.891006
lfemur -23.955200 70.757599 -127.517006
ltibia 550.942993
lfoot 57.993896 98.686401
ltoes -61.446899
348
root 9.295390 16.905600 13.121200 6.292070 10.072400 -1.194570
lowerback -58.034302 -34.281601 -23.589800
upperback -16.261700 -44.933201 30.959599
thorax 20.002201 -22.580601 41.722000
lowerneck -197.208008 -58.507000 -135.485001
upperneck 205.399002 -76.170105 143.513000
head 110.138000 -29.205599 63.559299
rclavicle -0.000000 -0.000000
rhumerus -446.132019 82.329704 -833.104980
rradius 354.971985
rwrist -212.635010
rhand -297.712982 -290.669983
rfingers 71.250198
rthumb -30.966202 -590.242981
lclavicle -0.000000 -0.000000
lhumerus -315.804993 -184.150009 993.453979
lradius 223.065002
lwrist 17.840000
lhand -88.787697 -185.869003
lfingers 71.250198
lthumb 170.631012 106.837997
rfemur -288.562988 27.449200 249.210999
rtibia 368.303986
rfoot -130.130997 14.750500
rtoes -79.100800
lfemur -41.828300 72.684494 -126.976006
ltibia 567.627014
lfoot 51.125397 103.399002
ltoes -59.147301
349
root 9.283910 16.931101 13.257700 6.337440 9.887730 -1.584380
lowerback -59.753498 -32.588600 -19.630800
upperback -15.516700 -42.910900 31.347200
thorax 21.286200 -21.577799 39.956299
lowerneck -195.403992 -58.718498 -135.854996
upperneck 202.467987 -76.553406 144.656006
head 108.857002 -29.358200 63.879200
rclavicle 0.000000 0.000000
rhumerus -442.494019 90.241096 -837.843018
rradius 359.425995
rwrist -221.296997
rhand -298.484985 -295.093018
rfingers 71.250198
rthumb -31.712000 -594.655029
lclavicle 0.000000 0.000000
lhumerus -323.309998 -197.007996 996.570984
lradius 223.822998
lwrist 29.906900
lhand -93.869492 -186.217987
lfingers 71.250198
lthumb 165.738998 106.903999
rfemur -281.378998 30.608700 254.808014
rtibia 362.752991
rfoot -129.759003 13.614000
rtoes -52.965897
lfemur -58.098202 75.335304 -124.926994
ltibia 581.487976
lfoot 41.078102 108.186996
ltoes -58.328899
350
root 9.278070 16.955400 13.400200 6.394830 9.789690 -2.179390
lowerback -62.521801 -31.458099 -13.008699
upperback -15.782000 -41.816299 32.359802
thorax 22.067600 -20.997601 37.244698
lowerneck -194.519989 -58.175003 -135.442993
upperneck 203.832001 -76.004097 144.033005
head 109.041992 -29.172100 63.719002
rclavicle -0.000000 0.000000
rhumerus -437.503998 96.026001 -840.018005
rradius 359.096985
rwrist -225.217987
rhand -296.989990 -288.263000
rfingers 71.250198
rthumb -30.267700 -587.846008
lclavicle -0.000000 0.000000
lhumerus -331.822021 -204.393005 998.626038
lradius 224.239014
lwrist 36.961700
lhand -94.120499 -185.877991
lfingers 71.250198
lthumb 165.498016 107.264008
rfemur -273.661987 34.180500 262.261993
rtibia 355.962982
rfoot -131.716995 9.719521
rtoes -65.866402
lfemur -74.384094 77.884796 -120.863998
ltibia 595.916016
lfoot 27.856701 111.858994
ltoes -62.778202
351
root 9.277730 16.975901 13.535800 6.415810 9.616960 -2.414170
lowerback -63.094299 -29.323101 -9.242060
upperback -15.495900 -39.203300 31.987200
thorax 22.204700 -19.670599 34.940903
lowerneck -197.532013 -59.420898 -135.449997
upperneck 205.755997 -77.531502 143.716003
head 110.572006 -29.782501 63.417900
rclavicle 0.000000 0.000000
rhumerus -433.347015 102.160995 -842.228027
rradius 363.731018
rwrist -230.657013
rhand -293.606995 -292.412994
rfingers 71.250198
rthumb -27.000698 -592.039001
lclavicle 0.000000 0.000000
lhumerus -339.005005 -208.024994 998.554016
lradius 227.735001
lwrist 39.580902
lhand -94.501801 -185.375992
lfingers 71.250198
lthumb 165.130997 107.797005
rfemur -265.424988 35.942902 265.846985
rtibia 349.693970
rfoot -134.537003 7.639709
rtoes -83.678596
lfemur -89.139099 77.913597 -121.949997
ltibia 607.546997
lfoot 18.720200 115.424004
ltoes -51.205502
352
root 9.281480 16.993799 13.667400 6.351860 9.369430 -2.347290
lowerback -62.110100 -27.326601 -9.392410
upperback -14.251800 -36.544300 31.473900
thorax 22.730200 -18.360500 34.742100
lowerneck -200.259995 -60.784500 -136.373001
upperneck 205.341003 -79.050697 144.701004
head 111.298996 -30.333801 63.680801
rclavicle 0.000000 0.000000
rhumerus -428.771027 108.944000 -843.346008
rradius 370.252014
rwrist -234.112000
rhand -295.263000 -293.988983
rfingers 71.250198
rthumb -28.599899 -593.595032
lclavicle 0.000000 0.000000
lhumerus -345.574982 -208.628006 997.750000
lradius 234.300003
lwrist 45.299603
lhand -94.671600 -184.143005
lfingers 71.250198
lthumb 164.967010 109.043999
rfemur -256.214020 35.325600 266.513000
rtibia 344.192993
rfoot -136.046005 9.838560
rtoes -87.263405
lfemur -102.891998 75.816498 -127.047005
ltibia 616.852966
lfoot -11.472799 124.694000
ltoes -145.193008
